<svg width="48" height="48" viewBox="0 0 48 48" fill="none" xmlns="http://www.w3.org/2000/svg">
<path fill-rule="evenodd" clip-rule="evenodd" d="M11.4661 4.086C13.9001 1.666 17.9081 2.096 19.9461 4.82L22.4701 8.188C24.1301 10.404 23.9821 13.5 22.0121 15.458L21.5361 15.934C21.4821 16.1338 21.4766 16.3436 21.5201 16.546C21.6461 17.362 22.3281 19.09 25.1841 21.93C28.0401 24.77 29.7801 25.45 30.6081 25.578C30.8167 25.62 31.0322 25.6138 31.2381 25.56L32.0541 24.748C33.8061 23.008 36.4941 22.682 38.6621 23.86L42.4821 25.94C45.7561 27.716 46.5821 32.164 43.9021 34.83L41.0601 37.654C40.1641 38.544 38.9601 39.286 37.4921 39.424C33.8721 39.762 25.4381 39.33 16.5721 30.516C8.29805 22.288 6.71005 15.112 6.50805 11.576C6.40805 9.788 7.25205 8.276 8.32805 7.208L11.4661 4.086ZM17.5461 6.618C16.5321 5.264 14.6441 5.156 13.5801 6.214L10.4401 9.334C9.78005 9.99 9.46405 10.714 9.50405 11.406C9.66405 14.216 10.9441 20.69 18.6881 28.39C26.8121 36.466 34.3141 36.708 37.2141 36.436C37.8061 36.382 38.3941 36.074 38.9441 35.528L41.7841 32.702C42.9401 31.554 42.6861 29.462 41.0501 28.574L37.2301 26.496C36.1741 25.924 34.9381 26.112 34.1701 26.876L33.2601 27.782L32.2001 26.718C33.2601 27.782 33.2581 27.784 33.2561 27.784L33.2541 27.788L33.2481 27.794L33.2341 27.806L33.2041 27.834C33.1197 27.9124 33.0287 27.9833 32.9321 28.046C32.7721 28.152 32.5601 28.27 32.2941 28.368C31.7541 28.57 31.0381 28.678 30.1541 28.542C28.4201 28.276 26.1221 27.094 23.0681 24.058C20.0161 21.022 18.8241 18.738 18.5561 17.006C18.4181 16.122 18.5281 15.406 18.7321 14.866C18.8443 14.5621 19.0051 14.2785 19.2081 14.026L19.2721 13.956L19.3001 13.926L19.3121 13.914L19.3181 13.908L19.3221 13.904L19.8981 13.332C20.7541 12.478 20.8741 11.064 20.0681 9.986L17.5461 6.618Z" fill="white"/>
</svg>
