<svg width="48" height="48" viewBox="0 0 48 48" fill="none" xmlns="http://www.w3.org/2000/svg">
<path fill-rule="evenodd" clip-rule="evenodd" d="M34 24C34 26.6522 32.9464 29.1957 31.0711 31.0711C29.1957 32.9464 26.6522 34 24 34C21.3478 34 18.8043 32.9464 16.9289 31.0711C15.0536 29.1957 14 26.6522 14 24C14 21.3478 15.0536 18.8043 16.9289 16.9289C18.8043 15.0536 21.3478 14 24 14C26.6522 14 29.1957 15.0536 31.0711 16.9289C32.9464 18.8043 34 21.3478 34 24ZM31 24C31 24.9193 30.8189 25.8295 30.4672 26.6788C30.1154 27.5281 29.5998 28.2997 28.9497 28.9497C28.2997 29.5998 27.5281 30.1154 26.6788 30.4672C25.8295 30.8189 24.9193 31 24 31C23.0807 31 22.1705 30.8189 21.3212 30.4672C20.4719 30.1154 19.7003 29.5998 19.0503 28.9497C18.4002 28.2997 17.8846 27.5281 17.5328 26.6788C17.1811 25.8295 17 24.9193 17 24C17 22.1435 17.7375 20.363 19.0503 19.0503C20.363 17.7375 22.1435 17 24 17C25.8565 17 27.637 17.7375 28.9497 19.0503C30.2625 20.363 31 22.1435 31 24Z" fill="white"/>
<path fill-rule="evenodd" clip-rule="evenodd" d="M14.91 6.928C14.9626 6.59248 15.0997 6.27587 15.3085 6.00802C15.5173 5.74017 15.7909 5.5299 16.1034 5.39704C16.416 5.26417 16.7572 5.21309 17.095 5.2486C17.4327 5.28411 17.7559 5.40504 18.034 5.6L22.708 8.88C23.0495 9.12007 23.4577 9.24723 23.8752 9.24364C24.2927 9.24006 24.6986 9.10591 25.036 8.86L29.648 5.496C29.9224 5.29594 30.2433 5.16905 30.5803 5.12731C30.9173 5.08556 31.2595 5.13033 31.5744 5.25739C31.8894 5.38445 32.1668 5.58962 32.3805 5.85356C32.5942 6.1175 32.7372 6.43151 32.796 6.766L33.78 12.39C33.8518 12.8015 34.0508 13.1802 34.3489 13.4729C34.647 13.7656 35.0292 13.9576 35.442 14.022L41.082 14.904C41.4178 14.9564 41.7348 15.0936 42.0029 15.3025C42.271 15.5114 42.4815 15.7852 42.6144 16.0981C42.7473 16.4109 42.7983 16.7525 42.7625 17.0905C42.7267 17.4286 42.6054 17.7519 42.41 18.03L39.13 22.702C38.8899 23.0436 38.7627 23.4517 38.7663 23.8692C38.7699 24.2867 38.9041 24.6926 39.15 25.03L42.516 29.644C42.716 29.9184 42.8429 30.2393 42.8847 30.5763C42.9264 30.9134 42.8817 31.2555 42.7546 31.5704C42.6275 31.8854 42.4224 32.1628 42.1584 32.3765C41.8945 32.5902 41.5805 32.7332 41.246 32.792L35.622 33.776C35.2107 33.8478 34.8322 34.0464 34.5396 34.3441C34.2469 34.6418 34.0547 35.0236 33.99 35.436L33.108 41.078C33.0556 41.4139 32.9184 41.7308 32.7095 41.9989C32.5006 42.2671 32.2267 42.4775 31.9139 42.6104C31.601 42.7433 31.2595 42.7943 30.9214 42.7585C30.5834 42.7228 30.2601 42.6014 29.982 42.406L25.31 39.126C24.9684 38.8859 24.5602 38.7588 24.1428 38.7624C23.7253 38.766 23.3194 38.9001 22.982 39.146L18.368 42.512C18.0934 42.7121 17.7724 42.8389 17.4352 42.8806C17.098 42.9222 16.7558 42.8773 16.4408 42.75C16.1258 42.6227 15.8485 42.4173 15.6349 42.1531C15.4213 41.8889 15.2785 41.5747 15.22 41.24L14.236 35.616C14.1642 35.2048 13.9656 34.8263 13.6679 34.5336C13.3702 34.2409 12.9884 34.0488 12.576 33.984L6.93397 33.104C6.59812 33.0516 6.28117 32.9144 6.01305 32.7055C5.74492 32.4966 5.53447 32.2228 5.40156 31.9099C5.26865 31.5971 5.21767 31.2555 5.25344 30.9175C5.28921 30.5794 5.41054 30.2561 5.60597 29.978L8.88597 25.304C9.12604 24.9624 9.2532 24.5543 9.24961 24.1368C9.24603 23.7193 9.11188 23.3134 8.86597 22.976L5.49997 18.364C5.29989 18.0894 5.17305 17.7684 5.13141 17.4312C5.08977 17.0941 5.13471 16.7518 5.26199 16.4369C5.38927 16.1219 5.59469 15.8445 5.85888 15.6309C6.12306 15.4173 6.43731 15.2745 6.77197 15.216L12.396 14.23C12.8069 14.1579 13.1849 13.9591 13.4772 13.6614C13.7695 13.3637 13.9613 12.9821 14.026 12.57L14.91 6.928ZM16.99 13.034L17.624 8.978L20.984 11.338C21.8383 11.9376 22.8589 12.2548 23.9026 12.2451C24.9464 12.2354 25.9609 11.8994 26.804 11.284L30.118 8.864L30.826 12.908C31.0059 13.936 31.5029 14.882 32.2475 15.6133C32.9921 16.3446 33.9469 16.8246 34.978 16.986L39.032 17.62L36.674 20.98C36.0744 21.8344 35.7572 22.8549 35.7669 23.8987C35.7766 24.9424 36.1126 25.9569 36.728 26.8L39.146 30.114L35.104 30.822C34.0756 31.0015 33.1292 31.4984 32.3975 32.243C31.6658 32.9877 31.1855 33.9426 31.024 34.974L30.392 39.028L27.032 36.67C26.1778 36.0701 25.1573 35.7526 24.1136 35.7619C23.0699 35.7712 22.0553 36.1069 21.212 36.722L17.898 39.142L17.19 35.098C17.0097 34.0703 16.5125 33.1248 15.7679 32.3939C15.0233 31.663 14.0688 31.1833 13.038 31.022L8.98397 30.386L11.342 27.028C11.9416 26.1736 12.2588 25.1531 12.2491 24.1093C12.2394 23.0656 11.9033 22.0511 11.288 21.208L8.86997 17.894L12.912 17.186C13.9404 17.0065 14.8868 16.5096 15.6185 15.765C16.3502 15.0203 16.8305 14.0654 16.992 13.034" fill="white"/>
</svg>
