<svg width="48" height="48" viewBox="0 0 48 48" fill="none" xmlns="http://www.w3.org/2000/svg">
<path fill-rule="evenodd" clip-rule="evenodd" d="M4 4V44H8V26H12C12 26.5304 12.2107 27.0391 12.5858 27.4142C12.9609 27.7893 13.4696 28 14 28H26C26.5304 28 27.0391 27.7893 27.4142 27.4142C27.7893 27.0391 28 26.5304 28 26H30C30.5304 26 31.0391 26.2107 31.4142 26.5858C31.7893 26.9609 32 27.4696 32 28V32H44V26C44 22.8174 42.7357 19.7652 40.4853 17.5147C38.2348 15.2643 35.1826 14 32 14H28C28 13.4696 27.7893 12.9609 27.4142 12.5858C27.0391 12.2107 26.5304 12 26 12H22V8H26C26.5304 8 27.0391 7.78929 27.4142 7.41421C27.7893 7.03914 28 6.53043 28 6C28 5.46957 27.7893 4.96086 27.4142 4.58579C27.0391 4.21071 26.5304 4 26 4H14C13.4696 4 12.9609 4.21071 12.5858 4.58579C12.2107 4.96086 12 5.46957 12 6C12 6.53043 12.2107 7.03914 12.5858 7.41421C12.9609 7.78929 13.4696 8 14 8H18V12H14C13.4696 12 12.9609 12.2107 12.5858 12.5858C12.2107 12.9609 12 13.4696 12 14H8V4H4ZM12 18H8V22H12V18ZM28 18V22H30C31.5913 22 33.1174 22.6321 34.2426 23.7574C35.3679 24.8826 36 26.4087 36 28H40V26C40 23.8783 39.1571 21.8434 37.6569 20.3431C36.1566 18.8429 34.1217 18 32 18H28ZM24 16H16V24H24V16Z" fill="white"/>
<path d="M38 33.072L39.46 34.632L39.462 34.636L39.466 34.64L39.476 34.648L39.502 34.678L39.558 34.74L39.586 34.772L39.858 35.092C40.1464 35.4452 40.4174 35.8123 40.67 36.192C41.206 37.006 42 38.414 42 39.94C42 42.126 40.266 44 38 44C35.734 44 34 42.126 34 39.94C34 38.414 34.794 37.006 35.33 36.194C35.6843 35.6626 36.0745 35.1561 36.498 34.678L36.526 34.648L36.534 34.64L36.538 34.636L38 33.072Z" fill="white"/>
</svg>
