<svg width="48" height="48" viewBox="0 0 48 48" fill="none" xmlns="http://www.w3.org/2000/svg">
<path d="M24 36C23.1195 36.0001 22.2636 35.7097 21.5649 35.1738C20.8663 34.6379 20.364 33.8864 20.136 33.036" stroke="white" stroke-width="4" stroke-linecap="round"/>
<path d="M20.848 9.358C22.11 7.212 22.742 6.138 23.644 5.978C23.8794 5.93541 24.1206 5.93541 24.356 5.978C25.258 6.138 25.89 7.212 27.152 9.358L30.488 15.03C32.8193 18.9942 34.6384 23.2381 35.902 27.66C37.956 34.846 32.562 42 25.086 42H22.914C15.44 42 10.044 34.846 12.098 27.66C13.3615 23.2381 15.1807 18.9942 17.512 15.03L20.848 9.358Z" stroke="white" stroke-width="4"/>
</svg>
