<svg width="48" height="48" viewBox="0 0 48 48" fill="none" xmlns="http://www.w3.org/2000/svg">
<g clip-path="url(#clip0_8_2)">
<path d="M1.01743 23.7128C1.01632 27.7457 2.07008 31.6836 4.07381 35.1544L0.825806 47.0134L12.962 43.8313C16.3187 45.6586 20.0797 46.6161 23.9015 46.6164H23.9116C36.5283 46.6164 46.7986 36.3498 46.804 23.7308C46.8065 17.616 44.4273 11.8661 40.1047 7.54012C35.7828 3.21454 30.0349 0.831099 23.9106 0.828308C11.2924 0.828308 1.02283 11.0944 1.01762 23.7128" fill="url(#paint0_linear_8_2)"/>
<path d="M0.200107 23.7053C0.198805 27.8833 1.29034 31.962 3.3655 35.5572L0.0010376 47.8413L12.5724 44.5451C16.0362 46.4337 19.9361 47.4294 23.9045 47.4309H23.9147C36.9841 47.4309 47.6234 36.795 47.6289 23.7243C47.6312 17.3898 45.1664 11.4331 40.6894 6.95219C36.2118 2.47181 30.2583 0.00260465 23.9147 0C10.8431 0 0.205317 10.6344 0.200107 23.7053ZM7.68681 34.938L7.21741 34.1929C5.2442 31.0554 4.20271 27.4298 4.2042 23.7068C4.20829 12.8426 13.05 4.00372 23.9222 4.00372C29.1873 4.00595 34.1354 6.05842 37.857 9.78233C41.5785 13.5066 43.6263 18.4573 43.625 23.7228C43.6202 34.587 34.7783 43.427 23.9147 43.427H23.9069C20.3696 43.4251 16.9004 42.4752 13.8749 40.68L13.1549 40.253L5.69481 42.2089L7.68681 34.938Z" fill="url(#paint1_linear_8_2)"/>
<path d="M17.9877 13.795C17.5438 12.8084 17.0766 12.7885 16.6544 12.7712C16.3088 12.7563 15.9136 12.7574 15.5188 12.7574C15.1237 12.7574 14.4816 12.9061 13.9389 13.4986C13.3957 14.0917 11.8649 15.525 11.8649 18.4402C11.8649 21.3554 13.9882 24.1728 14.2842 24.5686C14.5806 24.9635 18.3834 31.1373 24.4061 33.5124C29.4115 35.4861 30.4301 35.0936 31.5164 34.9946C32.6029 34.896 35.0223 33.5617 35.5158 32.1781C36.0098 30.7946 36.0098 29.6088 35.8617 29.3609C35.7136 29.1141 35.3184 28.9658 34.7259 28.6696C34.1333 28.3734 31.22 26.9397 30.677 26.742C30.1337 26.5444 29.7387 26.4458 29.3436 27.0391C28.9484 27.6315 27.8137 28.9658 27.4678 29.3609C27.1224 29.757 26.7765 29.8063 26.1841 29.51C25.5912 29.2127 23.6829 28.5877 21.4189 26.5693C19.6574 24.9987 18.4682 23.0592 18.1225 22.4659C17.7769 21.8735 18.0855 21.5524 18.3826 21.2571C18.6489 20.9916 18.9754 20.5652 19.2719 20.2194C19.5674 19.8733 19.666 19.6264 19.8636 19.2313C20.0613 18.8357 19.9624 18.4897 19.8144 18.1933C19.666 17.8969 18.5145 14.9665 17.9877 13.795Z" fill="white"/>
</g>
<defs>
<linearGradient id="paint0_linear_8_2" x1="2299.74" y1="4619.34" x2="2299.74" y2="0.828308" gradientUnits="userSpaceOnUse">
<stop stop-color="#1FAF38"/>
<stop offset="1" stop-color="#60D669"/>
</linearGradient>
<linearGradient id="paint1_linear_8_2" x1="2381.4" y1="4784.13" x2="2381.4" y2="0" gradientUnits="userSpaceOnUse">
<stop stop-color="#F9F9F9"/>
<stop offset="1" stop-color="white"/>
</linearGradient>
<clipPath id="clip0_8_2">
<rect width="47.63" height="48" fill="white"/>
</clipPath>
</defs>
</svg>
